<svg aria-hidden="true" style="position: absolute; width: 0; height: 0; overflow: hidden;" version="1.1" xmlns="http://www.w3.org/2000/svg" xmlns:xlink="http://www.w3.org/1999/xlink">
<defs>
<symbol id="icon-eyedropper" viewBox="0 0 32 32">
<title>eyedropper</title>
<path d="M30.828 1.172c-1.562-1.562-4.095-1.562-5.657 0l-5.379 5.379-3.793-3.793-4.243 4.243 3.326 3.326-14.754 14.754c-0.252 0.252-0.358 0.592-0.322 0.921h-0.008v5c0 0.552 0.448 1 1 1h5c0 0 0.083 0 0.125 0 0.288 0 0.576-0.11 0.795-0.329l14.754-14.754 3.326 3.326 4.243-4.243-3.793-3.793 5.379-5.379c1.562-1.562 1.562-4.095 0-5.657zM5.409 30h-3.409v-3.409l14.674-14.674 3.409 3.409-14.674 14.674z"></path>
</symbol>
<symbol id="icon-droplet" viewBox="0 0 32 32">
<title>droplet</title>
<path d="M27.020 14.786c-2.055-5.732-6.41-10.88-11.020-14.786-4.61 3.907-8.965 9.054-11.020 14.786-1.271 3.545-1.396 7.393 0.393 10.794 2.058 3.911 6.207 6.42 10.626 6.42s8.569-2.509 10.626-6.42c1.79-3.401 1.664-7.249 0.393-10.794zM23.086 23.717c-1.369 2.602-4.15 4.283-7.086 4.283-1.723 0-3.391-0.579-4.753-1.583 0.414 0.054 0.832 0.083 1.254 0.083 3.67 0 7.146-2.1 8.856-5.351 1.402-2.665 1.281-5.433 0.746-7.636 0.455 0.88 0.841 1.756 1.151 2.623 0.706 1.971 1.251 4.886-0.168 7.581z"></path>
</symbol>
<symbol id="icon-download" viewBox="0 0 32 32">
<title>download</title>
<path d="M16 18l8-8h-6v-8h-4v8h-6zM23.273 14.727l-2.242 2.242 8.128 3.031-13.158 4.907-13.158-4.907 8.127-3.031-2.242-2.242-8.727 3.273v8l16 6 16-6v-8z"></path>
</symbol>
<symbol id="icon-upload" viewBox="0 0 32 32">
<title>upload</title>
<path d="M14 18h4v-8h6l-8-8-8 8h6zM20 13.5v3.085l9.158 3.415-13.158 4.907-13.158-4.907 9.158-3.415v-3.085l-12 4.5v8l16 6 16-6v-8z"></path>
</symbol>
<symbol id="icon-floppy-disk" viewBox="0 0 32 32">
<title>floppy-disk</title>
<path d="M28 0h-28v32h32v-28l-4-4zM16 4h4v8h-4v-8zM28 28h-24v-24h2v10h18v-10h2.343l1.657 1.657v22.343z"></path>
</symbol>
<symbol id="icon-undo" viewBox="0 0 32 32">
<title>undo</title>
<path d="M16 2c-4.418 0-8.418 1.791-11.313 4.687l-4.686-4.687v12h12l-4.485-4.485c2.172-2.172 5.172-3.515 8.485-3.515 6.627 0 12 5.373 12 12 0 3.584-1.572 6.801-4.063 9l2.646 3c3.322-2.932 5.417-7.221 5.417-12 0-8.837-7.163-16-16-16z"></path>
</symbol>
<symbol id="icon-redo" viewBox="0 0 32 32">
<title>redo</title>
<path d="M0 18c0 4.779 2.095 9.068 5.417 12l2.646-3c-2.491-2.199-4.063-5.416-4.063-9 0-6.627 5.373-12 12-12 3.314 0 6.314 1.343 8.485 3.515l-4.485 4.485h12v-12l-4.687 4.687c-2.895-2.896-6.895-4.687-11.313-4.687-8.837 0-16 7.163-16 16z"></path>
</symbol>
<symbol id="icon-cog" viewBox="0 0 32 32">
<title>cog</title>
<path d="M29.181 19.070c-1.679-2.908-0.669-6.634 2.255-8.328l-3.145-5.447c-0.898 0.527-1.943 0.829-3.058 0.829-3.361 0-6.085-2.742-6.085-6.125h-6.289c0.008 1.044-0.252 2.103-0.811 3.070-1.679 2.908-5.411 3.897-8.339 2.211l-3.144 5.447c0.905 0.515 1.689 1.268 2.246 2.234 1.676 2.903 0.672 6.623-2.241 8.319l3.145 5.447c0.895-0.522 1.935-0.82 3.044-0.82 3.35 0 6.067 2.725 6.084 6.092h6.289c-0.003-1.034 0.259-2.080 0.811-3.038 1.676-2.903 5.399-3.894 8.325-2.219l3.145-5.447c-0.899-0.515-1.678-1.266-2.232-2.226zM16 22.479c-3.578 0-6.479-2.901-6.479-6.479s2.901-6.479 6.479-6.479c3.578 0 6.479 2.901 6.479 6.479s-2.901 6.479-6.479 6.479z"></path>
</symbol>
<symbol id="icon-bin" viewBox="0 0 32 32">
<title>bin</title>
<path d="M4 10v20c0 1.1 0.9 2 2 2h18c1.1 0 2-0.9 2-2v-20h-22zM10 28h-2v-14h2v14zM14 28h-2v-14h2v14zM18 28h-2v-14h2v14zM22 28h-2v-14h2v14z"></path>
<path d="M26.5 4h-6.5v-2.5c0-0.825-0.675-1.5-1.5-1.5h-7c-0.825 0-1.5 0.675-1.5 1.5v2.5h-6.5c-0.825 0-1.5 0.675-1.5 1.5v2.5h26v-2.5c0-0.825-0.675-1.5-1.5-1.5zM18 4h-6v-1.975h6v1.975z"></path>
</symbol>
<symbol id="icon-download3" viewBox="0 0 32 32">
<title>download3</title>
<path d="M23 14l-8 8-8-8h5v-12h6v12zM15 22h-15v8h30v-8h-15zM28 26h-4v-2h4v2z"></path>
</symbol>
<symbol id="icon-upload3" viewBox="0 0 32 32">
<title>upload3</title>
<path d="M15 22h-15v8h30v-8h-15zM28 26h-4v-2h4v2zM7 10l8-8 8 8h-5v10h-6v-10z"></path>
</symbol>
<symbol id="icon-link" viewBox="0 0 32 32">
<title>link</title>
<path d="M13.757 19.868c-0.416 0-0.832-0.159-1.149-0.476-2.973-2.973-2.973-7.81 0-10.783l6-6c1.44-1.44 3.355-2.233 5.392-2.233s3.951 0.793 5.392 2.233c2.973 2.973 2.973 7.81 0 10.783l-2.743 2.743c-0.635 0.635-1.663 0.635-2.298 0s-0.635-1.663 0-2.298l2.743-2.743c1.706-1.706 1.706-4.481 0-6.187-0.826-0.826-1.925-1.281-3.094-1.281s-2.267 0.455-3.094 1.281l-6 6c-1.706 1.706-1.706 4.481 0 6.187 0.635 0.635 0.635 1.663 0 2.298-0.317 0.317-0.733 0.476-1.149 0.476z"></path>
<path d="M8 31.625c-2.037 0-3.952-0.793-5.392-2.233-2.973-2.973-2.973-7.81 0-10.783l2.743-2.743c0.635-0.635 1.664-0.635 2.298 0s0.635 1.663 0 2.298l-2.743 2.743c-1.706 1.706-1.706 4.481 0 6.187 0.826 0.826 1.925 1.281 3.094 1.281s2.267-0.455 3.094-1.281l6-6c1.706-1.706 1.706-4.481 0-6.187-0.635-0.635-0.635-1.663 0-2.298s1.663-0.635 2.298 0c2.973 2.973 2.973 7.81 0 10.783l-6 6c-1.44 1.44-3.355 2.233-5.392 2.233z"></path>
</symbol>
<symbol id="icon-eye" viewBox="0 0 32 32">
<title>eye</title>
<path d="M16 6c-6.979 0-13.028 4.064-16 10 2.972 5.936 9.021 10 16 10s13.027-4.064 16-10c-2.972-5.936-9.021-10-16-10zM23.889 11.303c1.88 1.199 3.473 2.805 4.67 4.697-1.197 1.891-2.79 3.498-4.67 4.697-2.362 1.507-5.090 2.303-7.889 2.303s-5.527-0.796-7.889-2.303c-1.88-1.199-3.473-2.805-4.67-4.697 1.197-1.891 2.79-3.498 4.67-4.697 0.122-0.078 0.246-0.154 0.371-0.228-0.311 0.854-0.482 1.776-0.482 2.737 0 4.418 3.582 8 8 8s8-3.582 8-8c0-0.962-0.17-1.883-0.482-2.737 0.124 0.074 0.248 0.15 0.371 0.228v0zM16 13c0 1.657-1.343 3-3 3s-3-1.343-3-3 1.343-3 3-3 3 1.343 3 3z"></path>
</symbol>
<symbol id="icon-eye-blocked" viewBox="0 0 32 32">
<title>eye-blocked</title>
<path d="M29.561 0.439c-0.586-0.586-1.535-0.586-2.121 0l-6.318 6.318c-1.623-0.492-3.342-0.757-5.122-0.757-6.979 0-13.028 4.064-16 10 1.285 2.566 3.145 4.782 5.407 6.472l-4.968 4.968c-0.586 0.586-0.586 1.535 0 2.121 0.293 0.293 0.677 0.439 1.061 0.439s0.768-0.146 1.061-0.439l27-27c0.586-0.586 0.586-1.536 0-2.121zM13 10c1.32 0 2.44 0.853 2.841 2.037l-3.804 3.804c-1.184-0.401-2.037-1.521-2.037-2.841 0-1.657 1.343-3 3-3zM3.441 16c1.197-1.891 2.79-3.498 4.67-4.697 0.122-0.078 0.246-0.154 0.371-0.228-0.311 0.854-0.482 1.776-0.482 2.737 0 1.715 0.54 3.304 1.459 4.607l-1.904 1.904c-1.639-1.151-3.038-2.621-4.114-4.323z"></path>
<path d="M24 13.813c0-0.849-0.133-1.667-0.378-2.434l-10.056 10.056c0.768 0.245 1.586 0.378 2.435 0.378 4.418 0 8-3.582 8-8z"></path>
<path d="M25.938 9.062l-2.168 2.168c0.040 0.025 0.079 0.049 0.118 0.074 1.88 1.199 3.473 2.805 4.67 4.697-1.197 1.891-2.79 3.498-4.67 4.697-2.362 1.507-5.090 2.303-7.889 2.303-1.208 0-2.403-0.149-3.561-0.439l-2.403 2.403c1.866 0.671 3.873 1.036 5.964 1.036 6.978 0 13.027-4.064 16-10-1.407-2.81-3.504-5.2-6.062-6.938z"></path>
</symbol>
<symbol id="icon-notification" viewBox="0 0 32 32">
<title>notification</title>
<path d="M16 3c-3.472 0-6.737 1.352-9.192 3.808s-3.808 5.72-3.808 9.192c0 3.472 1.352 6.737 3.808 9.192s5.72 3.808 9.192 3.808c3.472 0 6.737-1.352 9.192-3.808s3.808-5.72 3.808-9.192c0-3.472-1.352-6.737-3.808-9.192s-5.72-3.808-9.192-3.808zM16 0v0c8.837 0 16 7.163 16 16s-7.163 16-16 16c-8.837 0-16-7.163-16-16s7.163-16 16-16zM14 22h4v4h-4zM14 6h4v12h-4z"></path>
</symbol>
<symbol id="icon-question" viewBox="0 0 32 32">
<title>question</title>
<path d="M14 22h4v4h-4zM22 8c1.105 0 2 0.895 2 2v6l-6 4h-4v-2l6-4v-2h-10v-4h12zM16 3c-3.472 0-6.737 1.352-9.192 3.808s-3.808 5.72-3.808 9.192c0 3.472 1.352 6.737 3.808 9.192s5.72 3.808 9.192 3.808c3.472 0 6.737-1.352 9.192-3.808s3.808-5.72 3.808-9.192c0-3.472-1.352-6.737-3.808-9.192s-5.72-3.808-9.192-3.808zM16 0v0c8.837 0 16 7.163 16 16s-7.163 16-16 16c-8.837 0-16-7.163-16-16s7.163-16 16-16z"></path>
</symbol>
<symbol id="icon-plus" viewBox="0 0 32 32">
<title>plus</title>
<path d="M31 12h-11v-11c0-0.552-0.448-1-1-1h-6c-0.552 0-1 0.448-1 1v11h-11c-0.552 0-1 0.448-1 1v6c0 0.552 0.448 1 1 1h11v11c0 0.552 0.448 1 1 1h6c0.552 0 1-0.448 1-1v-11h11c0.552 0 1-0.448 1-1v-6c0-0.552-0.448-1-1-1z"></path>
</symbol>
<symbol id="icon-minus" viewBox="0 0 32 32">
<title>minus</title>
<path d="M0 13v6c0 0.552 0.448 1 1 1h30c0.552 0 1-0.448 1-1v-6c0-0.552-0.448-1-1-1h-30c-0.552 0-1 0.448-1 1z"></path>
</symbol>
<symbol id="icon-cancel-circle" viewBox="0 0 32 32">
<title>cancel-circle</title>
<path d="M16 0c-8.837 0-16 7.163-16 16s7.163 16 16 16 16-7.163 16-16-7.163-16-16-16zM16 29c-7.18 0-13-5.82-13-13s5.82-13 13-13 13 5.82 13 13-5.82 13-13 13z"></path>
<path d="M21 8l-5 5-5-5-3 3 5 5-5 5 3 3 5-5 5 5 3-3-5-5 5-5z"></path>
</symbol>
<symbol id="icon-blocked" viewBox="0 0 32 32">
<title>blocked</title>
<path d="M27.314 4.686c-3.022-3.022-7.040-4.686-11.314-4.686s-8.292 1.664-11.314 4.686c-3.022 3.022-4.686 7.040-4.686 11.314s1.664 8.292 4.686 11.314c3.022 3.022 7.040 4.686 11.314 4.686s8.292-1.664 11.314-4.686c3.022-3.022 4.686-7.040 4.686-11.314s-1.664-8.292-4.686-11.314zM28 16c0 2.588-0.824 4.987-2.222 6.949l-16.727-16.727c1.962-1.399 4.361-2.222 6.949-2.222 6.617 0 12 5.383 12 12zM4 16c0-2.588 0.824-4.987 2.222-6.949l16.727 16.727c-1.962 1.399-4.361 2.222-6.949 2.222-6.617 0-12-5.383-12-12z"></path>
</symbol>
<symbol id="icon-cross" viewBox="0 0 32 32">
<title>cross</title>
<path d="M31.708 25.708c-0-0-0-0-0-0l-9.708-9.708 9.708-9.708c0-0 0-0 0-0 0.105-0.105 0.18-0.227 0.229-0.357 0.133-0.356 0.057-0.771-0.229-1.057l-4.586-4.586c-0.286-0.286-0.702-0.361-1.057-0.229-0.13 0.048-0.252 0.124-0.357 0.228 0 0-0 0-0 0l-9.708 9.708-9.708-9.708c-0-0-0-0-0-0-0.105-0.104-0.227-0.18-0.357-0.228-0.356-0.133-0.771-0.057-1.057 0.229l-4.586 4.586c-0.286 0.286-0.361 0.702-0.229 1.057 0.049 0.13 0.124 0.252 0.229 0.357 0 0 0 0 0 0l9.708 9.708-9.708 9.708c-0 0-0 0-0 0-0.104 0.105-0.18 0.227-0.229 0.357-0.133 0.355-0.057 0.771 0.229 1.057l4.586 4.586c0.286 0.286 0.702 0.361 1.057 0.229 0.13-0.049 0.252-0.124 0.357-0.229 0-0 0-0 0-0l9.708-9.708 9.708 9.708c0 0 0 0 0 0 0.105 0.105 0.227 0.18 0.357 0.229 0.356 0.133 0.771 0.057 1.057-0.229l4.586-4.586c0.286-0.286 0.362-0.702 0.229-1.057-0.049-0.13-0.124-0.252-0.229-0.357z"></path>
</symbol>
<symbol id="icon-checkmark" viewBox="0 0 32 32">
<title>checkmark</title>
<path d="M27 4l-15 15-7-7-5 5 12 12 20-20z"></path>
</symbol>
<symbol id="icon-play3" viewBox="0 0 32 32">
<title>play3</title>
<path d="M6 4l20 12-20 12z"></path>
</symbol>
<symbol id="icon-pause2" viewBox="0 0 32 32">
<title>pause2</title>
<path d="M4 4h10v24h-10zM18 4h10v24h-10z"></path>
</symbol>
<symbol id="icon-stop2" viewBox="0 0 32 32">
<title>stop2</title>
<path d="M4 4h24v24h-24z"></path>
</symbol>
<symbol id="icon-embed2" viewBox="0 0 40 32">
<title>embed2</title>
<path d="M26 23l3 3 10-10-10-10-3 3 7 7z"></path>
<path d="M14 9l-3-3-10 10 10 10 3-3-7-7z"></path>
<path d="M21.916 4.704l2.171 0.592-6 22.001-2.171-0.592 6-22.001z"></path>
</symbol>
<symbol id="icon-facebook2" viewBox="0 0 32 32">
<title>facebook2</title>
<path d="M29 0h-26c-1.65 0-3 1.35-3 3v26c0 1.65 1.35 3 3 3h13v-14h-4v-4h4v-2c0-3.306 2.694-6 6-6h4v4h-4c-1.1 0-2 0.9-2 2v2h6l-1 4h-5v14h9c1.65 0 3-1.35 3-3v-26c0-1.65-1.35-3-3-3z"></path>
</symbol>
<symbol id="icon-instagram" viewBox="0 0 32 32">
<title>instagram</title>
<path d="M16 2.881c4.275 0 4.781 0.019 6.462 0.094 1.563 0.069 2.406 0.331 2.969 0.55 0.744 0.288 1.281 0.638 1.837 1.194 0.563 0.563 0.906 1.094 1.2 1.838 0.219 0.563 0.481 1.412 0.55 2.969 0.075 1.688 0.094 2.194 0.094 6.463s-0.019 4.781-0.094 6.463c-0.069 1.563-0.331 2.406-0.55 2.969-0.288 0.744-0.637 1.281-1.194 1.837-0.563 0.563-1.094 0.906-1.837 1.2-0.563 0.219-1.413 0.481-2.969 0.55-1.688 0.075-2.194 0.094-6.463 0.094s-4.781-0.019-6.463-0.094c-1.563-0.069-2.406-0.331-2.969-0.55-0.744-0.288-1.281-0.637-1.838-1.194-0.563-0.563-0.906-1.094-1.2-1.837-0.219-0.563-0.481-1.413-0.55-2.969-0.075-1.688-0.094-2.194-0.094-6.463s0.019-4.781 0.094-6.463c0.069-1.563 0.331-2.406 0.55-2.969 0.288-0.744 0.638-1.281 1.194-1.838 0.563-0.563 1.094-0.906 1.838-1.2 0.563-0.219 1.412-0.481 2.969-0.55 1.681-0.075 2.188-0.094 6.463-0.094zM16 0c-4.344 0-4.887 0.019-6.594 0.094-1.7 0.075-2.869 0.35-3.881 0.744-1.056 0.412-1.95 0.956-2.837 1.85-0.894 0.888-1.438 1.781-1.85 2.831-0.394 1.019-0.669 2.181-0.744 3.881-0.075 1.713-0.094 2.256-0.094 6.6s0.019 4.887 0.094 6.594c0.075 1.7 0.35 2.869 0.744 3.881 0.413 1.056 0.956 1.95 1.85 2.837 0.887 0.887 1.781 1.438 2.831 1.844 1.019 0.394 2.181 0.669 3.881 0.744 1.706 0.075 2.25 0.094 6.594 0.094s4.888-0.019 6.594-0.094c1.7-0.075 2.869-0.35 3.881-0.744 1.050-0.406 1.944-0.956 2.831-1.844s1.438-1.781 1.844-2.831c0.394-1.019 0.669-2.181 0.744-3.881 0.075-1.706 0.094-2.25 0.094-6.594s-0.019-4.887-0.094-6.594c-0.075-1.7-0.35-2.869-0.744-3.881-0.394-1.063-0.938-1.956-1.831-2.844-0.887-0.887-1.781-1.438-2.831-1.844-1.019-0.394-2.181-0.669-3.881-0.744-1.712-0.081-2.256-0.1-6.6-0.1v0z"></path>
<path d="M16 7.781c-4.537 0-8.219 3.681-8.219 8.219s3.681 8.219 8.219 8.219 8.219-3.681 8.219-8.219c0-4.537-3.681-8.219-8.219-8.219zM16 21.331c-2.944 0-5.331-2.387-5.331-5.331s2.387-5.331 5.331-5.331c2.944 0 5.331 2.387 5.331 5.331s-2.387 5.331-5.331 5.331z"></path>
<path d="M26.462 7.456c0 1.060-0.859 1.919-1.919 1.919s-1.919-0.859-1.919-1.919c0-1.060 0.859-1.919 1.919-1.919s1.919 0.859 1.919 1.919z"></path>
</symbol>
<symbol id="icon-twitter" viewBox="0 0 32 32">
<title>twitter</title>
<path d="M32 7.075c-1.175 0.525-2.444 0.875-3.769 1.031 1.356-0.813 2.394-2.1 2.887-3.631-1.269 0.75-2.675 1.3-4.169 1.594-1.2-1.275-2.906-2.069-4.794-2.069-3.625 0-6.563 2.938-6.563 6.563 0 0.512 0.056 1.012 0.169 1.494-5.456-0.275-10.294-2.888-13.531-6.862-0.563 0.969-0.887 2.1-0.887 3.3 0 2.275 1.156 4.287 2.919 5.463-1.075-0.031-2.087-0.331-2.975-0.819 0 0.025 0 0.056 0 0.081 0 3.181 2.263 5.838 5.269 6.437-0.55 0.15-1.131 0.231-1.731 0.231-0.425 0-0.831-0.044-1.237-0.119 0.838 2.606 3.263 4.506 6.131 4.563-2.25 1.762-5.075 2.813-8.156 2.813-0.531 0-1.050-0.031-1.569-0.094 2.913 1.869 6.362 2.95 10.069 2.95 12.075 0 18.681-10.006 18.681-18.681 0-0.287-0.006-0.569-0.019-0.85 1.281-0.919 2.394-2.075 3.275-3.394z"></path>
</symbol>
<symbol id="icon-github" viewBox="0 0 32 32">
<title>github</title>
<path d="M16 0.395c-8.836 0-16 7.163-16 16 0 7.069 4.585 13.067 10.942 15.182 0.8 0.148 1.094-0.347 1.094-0.77 0-0.381-0.015-1.642-0.022-2.979-4.452 0.968-5.391-1.888-5.391-1.888-0.728-1.849-1.776-2.341-1.776-2.341-1.452-0.993 0.11-0.973 0.11-0.973 1.606 0.113 2.452 1.649 2.452 1.649 1.427 2.446 3.743 1.739 4.656 1.33 0.143-1.034 0.558-1.74 1.016-2.14-3.554-0.404-7.29-1.777-7.29-7.907 0-1.747 0.625-3.174 1.649-4.295-0.166-0.403-0.714-2.030 0.155-4.234 0 0 1.344-0.43 4.401 1.64 1.276-0.355 2.645-0.532 4.005-0.539 1.359 0.006 2.729 0.184 4.008 0.539 3.054-2.070 4.395-1.64 4.395-1.64 0.871 2.204 0.323 3.831 0.157 4.234 1.026 1.12 1.647 2.548 1.647 4.295 0 6.145-3.743 7.498-7.306 7.895 0.574 0.497 1.085 1.47 1.085 2.963 0 2.141-0.019 3.864-0.019 4.391 0 0.426 0.288 0.925 1.099 0.768 6.354-2.118 10.933-8.113 10.933-15.18 0-8.837-7.164-16-16-16z"></path>
</symbol>
<symbol id="icon-trello" viewBox="0 0 32 32">
<title>trello</title>
<path d="M29 0h-26c-1.65 0-3 1.35-3 3v26c0 1.65 1.35 3 3 3h26c1.65 0 3-1.35 3-3v-26c0-1.65-1.35-3-3-3zM14 24c0 1.1-0.9 2-2 2h-4c-1.1 0-2-0.9-2-2v-16c0-1.1 0.9-2 2-2h4c1.1 0 2 0.9 2 2v16zM26 18c0 1.1-0.9 2-2 2h-4c-1.1 0-2-0.9-2-2v-10c0-1.1 0.9-2 2-2h4c1.1 0 2 0.9 2 2v10z"></path>
</symbol>
<symbol id="icon-linkedin" viewBox="0 0 32 32">
<title>linkedin</title>
<path d="M29 0h-26c-1.65 0-3 1.35-3 3v26c0 1.65 1.35 3 3 3h26c1.65 0 3-1.35 3-3v-26c0-1.65-1.35-3-3-3zM12 26h-4v-14h4v14zM10 10c-1.106 0-2-0.894-2-2s0.894-2 2-2c1.106 0 2 0.894 2 2s-0.894 2-2 2zM26 26h-4v-8c0-1.106-0.894-2-2-2s-2 0.894-2 2v8h-4v-14h4v2.481c0.825-1.131 2.087-2.481 3.5-2.481 2.488 0 4.5 2.238 4.5 5v9z"></path>
</symbol>
</defs>
</svg>
